<?xml version="1.0" encoding="UTF-8" standalone="no"?>
<!DOCTYPE svg PUBLIC "-//W3C//DTD SVG 1.1//EN" "http://www.w3.org/Graphics/SVG/1.1/DTD/svg11.dtd">
<svg width="100%" height="100%" viewBox="0 0 2435 2467" version="1.1" xmlns="http://www.w3.org/2000/svg" xmlns:xlink="http://www.w3.org/1999/xlink" xml:space="preserve" xmlns:serif="http://www.serif.com/" style="fill-rule:evenodd;clip-rule:evenodd;stroke-linejoin:round;stroke-miterlimit:2;">
    <g transform="matrix(1,0,0,1,-916,-900)">
        <g id="Drawers">
            <g id="Space-1" serif:id="Space 1" transform="matrix(1.21268,0,0,0.756898,-531.96,380.948)">
                <path d="M3201.54,1414.64C3201.54,1816.52 2997.9,2142.79 2747.07,2142.79L1648.63,2142.79C1397.8,2142.79 1194.15,1816.52 1194.15,1414.64C1194.15,1012.76 1397.8,686.489 1648.63,686.489L2747.07,686.489C2997.9,686.489 3201.54,1012.76 3201.54,1414.64Z" style="fill:white;"/>
            </g>
            <g id="Space-11" serif:id="Space 1" transform="matrix(1.21268,0,0,0.756898,-531.96,1744.24)">
                <path d="M3201.54,1414.64C3201.54,1816.52 2997.9,2142.79 2747.07,2142.79L1648.63,2142.79C1397.8,2142.79 1194.15,1816.52 1194.15,1414.64C1194.15,1012.76 1397.8,686.489 1648.63,686.489L2747.07,686.489C2997.9,686.489 3201.54,1012.76 3201.54,1414.64Z" style="fill:white;"/>
            </g>
        </g>
    </g>
</svg>
