<?xml version="1.0" encoding="UTF-8" standalone="no"?>
<!DOCTYPE svg PUBLIC "-//W3C//DTD SVG 1.1//EN" "http://www.w3.org/Graphics/SVG/1.1/DTD/svg11.dtd">
<svg width="100%" height="100%" viewBox="0 0 1848 2751" version="1.1" xmlns="http://www.w3.org/2000/svg" xmlns:xlink="http://www.w3.org/1999/xlink" xml:space="preserve" xmlns:serif="http://www.serif.com/" style="fill-rule:evenodd;clip-rule:evenodd;stroke-linejoin:round;stroke-miterlimit:2;">
    <g transform="matrix(1,0,0,1,-1210,-758)">
        <g id="_2_Drawers" serif:id="2_Drawers">
            <g id="Space-1" serif:id="Space 1" transform="matrix(0.919994,0,0,0.543614,112.099,385.223)">
                <path d="M3201.54,1414.64C3201.54,1816.52 3008.75,2142.79 2771.29,2142.79L1624.41,2142.79C1386.94,2142.79 1194.15,1816.52 1194.15,1414.64C1194.15,1012.76 1386.94,686.489 1624.41,686.489L2771.29,686.489C3008.75,686.489 3201.54,1012.76 3201.54,1414.64Z" style="fill:white;"/>
            </g>
            <g id="Space-11" serif:id="Space 1" transform="matrix(0.919994,0,0,0.543614,112.099,2343.48)">
                <path d="M3201.54,1414.64C3201.54,1816.52 3008.75,2142.79 2771.29,2142.79L1624.41,2142.79C1386.94,2142.79 1194.15,1816.52 1194.15,1414.64C1194.15,1012.76 1386.94,686.489 1624.41,686.489L2771.29,686.489C3008.75,686.489 3201.54,1012.76 3201.54,1414.64Z" style="fill:white;"/>
            </g>
            <g id="Space-12" serif:id="Space 1" transform="matrix(0.919994,0,0,0.543614,112.099,1364.36)">
                <path d="M3201.54,1414.64C3201.54,1816.52 3008.75,2142.79 2771.29,2142.79L1624.41,2142.79C1386.94,2142.79 1194.15,1816.52 1194.15,1414.64C1194.15,1012.76 1386.94,686.489 1624.41,686.489L2771.29,686.489C3008.75,686.489 3201.54,1012.76 3201.54,1414.64Z" style="fill:white;"/>
            </g>
        </g>
    </g>
</svg>
